<svg width="30" height="30" viewBox="0 0 30 30" fill="none" xmlns="http://www.w3.org/2000/svg">
<path d="M22.0312 10.3125C21.5446 10.3118 21.0641 10.4203 20.625 10.6301V7.03126C20.6249 6.46263 20.4769 5.90381 20.1958 5.40957C19.9146 4.91533 19.5098 4.50264 19.0211 4.21197C18.5324 3.92129 17.9765 3.76261 17.408 3.75147C16.8395 3.74033 16.2778 3.87713 15.7781 4.14844C15.5376 3.40499 15.0396 2.77179 14.3737 2.36278C13.7079 1.95377 12.918 1.7958 12.1461 1.91729C11.3742 2.03878 10.671 2.43177 10.163 3.02553C9.65498 3.61929 9.37557 4.37484 9.375 5.15626V5.94258C8.93591 5.73285 8.45536 5.62432 7.96875 5.62501C7.09851 5.62501 6.26391 5.97071 5.64856 6.58606C5.0332 7.20142 4.6875 8.03601 4.6875 8.90626V17.8125C4.6875 20.5476 5.77399 23.1706 7.70796 25.1045C9.64193 27.0385 12.265 28.125 15 28.125C17.735 28.125 20.3581 27.0385 22.292 25.1045C24.226 23.1706 25.3125 20.5476 25.3125 17.8125V13.5938C25.3125 12.7235 24.9668 11.8889 24.3514 11.2736C23.7361 10.6582 22.9015 10.3125 22.0312 10.3125ZM23.4375 17.8125C23.4375 20.0503 22.5486 22.1964 20.9662 23.7787C19.3839 25.3611 17.2378 26.25 15 26.25C12.7622 26.25 10.6161 25.3611 9.03379 23.7787C7.45145 22.1964 6.5625 20.0503 6.5625 17.8125V8.90626C6.5625 8.5333 6.71066 8.17561 6.97438 7.91189C7.2381 7.64816 7.59579 7.50001 7.96875 7.50001C8.34171 7.50001 8.6994 7.64816 8.96312 7.91189C9.22684 8.17561 9.375 8.5333 9.375 8.90626V13.125C9.375 13.3736 9.47377 13.6121 9.64959 13.7879C9.8254 13.9637 10.0639 14.0625 10.3125 14.0625C10.5611 14.0625 10.7996 13.9637 10.9754 13.7879C11.1512 13.6121 11.25 13.3736 11.25 13.125V5.15626C11.25 4.7833 11.3982 4.42561 11.6619 4.16189C11.9256 3.89816 12.2833 3.75001 12.6562 3.75001C13.0292 3.75001 13.3869 3.89816 13.6506 4.16189C13.9143 4.42561 14.0625 4.7833 14.0625 5.15626V12.1875C14.0625 12.4361 14.1613 12.6746 14.3371 12.8504C14.5129 13.0262 14.7514 13.125 15 13.125C15.2486 13.125 15.4871 13.0262 15.6629 12.8504C15.8387 12.6746 15.9375 12.4361 15.9375 12.1875V7.03126C15.9375 6.6583 16.0857 6.30061 16.3494 6.03689C16.6131 5.77316 16.9708 5.62501 17.3438 5.62501C17.7167 5.62501 18.0744 5.77316 18.3381 6.03689C18.6018 6.30061 18.75 6.6583 18.75 7.03126V14.0625C18.75 14.3111 18.8488 14.5496 19.0246 14.7254C19.2004 14.9012 19.4389 15 19.6875 15C19.9361 15 20.1746 14.9012 20.3504 14.7254C20.5262 14.5496 20.625 14.3111 20.625 14.0625V13.5938C20.625 13.2208 20.7732 12.8631 21.0369 12.5994C21.3006 12.3357 21.6583 12.1875 22.0312 12.1875C22.4042 12.1875 22.7619 12.3357 23.0256 12.5994C23.2893 12.8631 23.4375 13.2208 23.4375 13.5938V17.8125ZM16.4062 19.6875C16.4062 19.9656 16.3238 20.2375 16.1693 20.4688C16.0147 20.7 15.7951 20.8803 15.5381 20.9867C15.2812 21.0931 14.9984 21.121 14.7257 21.0667C14.4529 21.0125 14.2023 20.8785 14.0056 20.6819C13.809 20.4852 13.675 20.2346 13.6208 19.9619C13.5665 19.6891 13.5944 19.4063 13.7008 19.1494C13.8072 18.8924 13.9875 18.6728 14.2187 18.5183C14.45 18.3637 14.7219 18.2813 15 18.2813C15.373 18.2813 15.7306 18.4294 15.9944 18.6931C16.2581 18.9569 16.4062 19.3145 16.4062 19.6875ZM15 15C10.7203 15 8.62383 19.0945 8.53594 19.268C8.47076 19.3982 8.43683 19.5419 8.43683 19.6875C8.43683 19.8331 8.47076 19.9768 8.53594 20.107C8.62383 20.2805 10.7203 24.375 15 24.375C19.2797 24.375 21.3762 20.2805 21.4641 20.107C21.5292 19.9768 21.5632 19.8331 21.5632 19.6875C21.5632 19.5419 21.5292 19.3982 21.4641 19.268C21.3762 19.0945 19.2797 15 15 15ZM15 22.5C12.5824 22.5 11.0391 20.5641 10.4648 19.6875C11.0391 18.8109 12.5824 16.875 15 16.875C17.4176 16.875 18.9621 18.8121 19.5352 19.6875C18.9609 20.5641 17.4176 22.5 15 22.5Z" fill="#2C2C2C"/>
</svg>
