<svg width="30" height="30" viewBox="0 0 30 30" fill="none" xmlns="http://www.w3.org/2000/svg">
<path d="M15 2.8125C12.5895 2.8125 10.2332 3.52728 8.22899 4.86646C6.22477 6.20564 4.66267 8.10907 3.74022 10.336C2.81778 12.563 2.57643 15.0135 3.04668 17.3777C3.51694 19.7418 4.67769 21.9134 6.38214 23.6179C8.08659 25.3223 10.2582 26.4831 12.6223 26.9533C14.9865 27.4236 17.437 27.1822 19.664 26.2598C21.8909 25.3373 23.7944 23.7752 25.1335 21.771C26.4727 19.7668 27.1875 17.4105 27.1875 15C27.1841 11.7687 25.899 8.67076 23.6141 6.3859C21.3292 4.10104 18.2313 2.81591 15 2.8125ZM25.3125 15C25.3145 16.7971 24.8441 18.5631 23.9484 20.1211L15.9375 14.5125V4.73086C18.4984 4.96758 20.8787 6.15146 22.6127 8.0508C24.3467 9.95014 25.3094 12.4282 25.3125 15ZM14.0625 4.73086V14.5125L6.05157 20.1211C5.19403 18.6221 4.72669 16.9317 4.69242 15.2051C4.65814 13.4784 5.05804 11.7708 5.85541 10.2389C6.65279 8.70707 7.8221 7.39997 9.25607 6.43758C10.69 5.4752 12.3427 4.88834 14.0625 4.73086ZM7.12969 21.6551L14.0625 16.8012V25.2691C11.3662 25.023 8.87549 23.7245 7.12969 21.6551ZM15.9375 25.2691V16.8012L22.8703 21.6551C21.1245 23.7245 18.6338 25.023 15.9375 25.2691Z" fill="#2C2C2C"/>
</svg>
